<svg id="Layer_1" data-name="Layer 1" xmlns="http://www.w3.org/2000/svg" viewBox="0 0 100 47.89"><defs><style>.cls-1{fill:#e94436;}.cls-2{fill:#4385f3;}.cls-3{fill:#fabc05;}.cls-4{fill:#109d58;}</style></defs><title>logo</title><path class="cls-1" d="M7.38,31.38a7.38,7.38,0,0,1-3.7-13.76L32.36,1a7.38,7.38,0,1,1,7.4,12.76L11.08,30.38A7.33,7.33,0,0,1,7.38,31.38Z" transform="translate(0 0.14)"/><path class="cls-2" d="M36.05,47.75a7.41,7.41,0,0,1-3.65-1L3.72,30.41A7.38,7.38,0,0,1,11,17.59L39.72,34a7.38,7.38,0,0,1-3.67,13.78Z" transform="translate(0 0.14)"/><path class="cls-3" d="M64,47.62a7.37,7.37,0,0,1-3.71-13.75L88.92,17.23A7.38,7.38,0,1,1,96.32,30L67.64,46.63A7.28,7.28,0,0,1,64,47.62Z" transform="translate(0 0.14)"/><path class="cls-4" d="M92.62,31A7.49,7.49,0,0,1,89,30L60.28,13.63A7.38,7.38,0,0,1,67.6.82L96.28,17.21A7.38,7.38,0,0,1,92.62,31Z" transform="translate(0 0.14)"/></svg>